<?xml version="1.0" encoding="UTF-8" standalone="no"?>
<!DOCTYPE svg PUBLIC "-//W3C//DTD SVG 1.0//EN" "http://www.w3.org/TR/2001/PR-SVG-20010719/DTD/svg10.dtd">
<svg width="281cm" height="251cm" viewBox="-1202 -1602 5603 5003" xmlns="http://www.w3.org/2000/svg" xmlns:xlink="http://www.w3.org/1999/xlink">
  <g>
    <rect style="fill: #234d80" x="-1200" y="-1600" width="5600" height="5000"/>
    <rect style="fill: none; fill-opacity:0; stroke-width: 2; stroke: #ffffff" x="-1200" y="-1600" width="5600" height="5000"/>
    <text font-size="12.8" style="fill: #000000;text-anchor:middle;font-family:sans-serif;font-style:normal;font-weight:normal" x="1600" y="904.8">
      <tspan x="1600" y="904.8"></tspan>
    </text>
  </g>
  <text font-size="12.8" style="fill: #000000;text-anchor:start;font-family:sans-serif;font-style:normal;font-weight:normal" x="1600" y="900">
    <tspan x="1600" y="900"></tspan>
  </text>
  <text font-size="92.5689" style="fill: #ffffff;text-anchor:start;font-family:sans-serif;font-style:normal;font-weight:700" x="-1000" y="-1400">
    <tspan x="-1000" y="-1400">Data, Models and Analytics Paradigm by Marc Skov Madsen</tspan>
  </text>
  <text font-size="12.7998" style="fill: #000000;text-anchor:start;font-family:sans-serif;font-style:normal;font-weight:normal" x="1600" y="900">
    <tspan x="1600" y="900"></tspan>
  </text>
  <text font-size="12.7998" style="fill: #000000;text-anchor:start;font-family:sans-serif;font-style:normal;font-weight:normal" x="1600" y="900">
    <tspan x="1600" y="900">Prelimi</tspan>
  </text>
  <g>
    <rect style="fill: #ff0000" x="3850.7" y="-1469.64" width="398.8" height="98.15"/>
    <text font-size="81.2788" style="fill: #ffffff;text-anchor:start;font-family:sans-serif;font-style:normal;font-weight:normal" x="3850.7" y="-1388.29">
      <tspan x="3850.7" y="-1388.29">Preliminary</tspan>
    </text>
  </g>
  <text font-size="12.7998" style="fill: #000000;text-anchor:start;font-family:sans-serif;font-style:normal;font-weight:normal" x="3890.94" y="-1445.78">
    <tspan x="3890.94" y="-1445.78"></tspan>
  </text>
  <g>
    <line style="fill: none; fill-opacity:0; stroke-width: 2; stroke: #ffffff" x1="-670.453" y1="-697.725" x2="-35.7447" y2="152.139"/>
    <polygon style="fill: #ffffff" points="-692.892,-727.77 -642.943,-702.669 -670.453,-697.725 -683.004,-672.75 "/>
    <polygon style="fill: none; fill-opacity:0; stroke-width: 2; stroke: #ffffff" points="-692.892,-727.77 -642.943,-702.669 -670.453,-697.725 -683.004,-672.75 "/>
    <polygon style="fill: #ffffff" points="-13.3055,182.184 -63.2547,157.083 -35.7447,152.139 -23.194,127.164 "/>
    <polygon style="fill: none; fill-opacity:0; stroke-width: 2; stroke: #ffffff" points="-13.3055,182.184 -63.2547,157.083 -35.7447,152.139 -23.194,127.164 "/>
  </g>
  <g>
    <line style="fill: none; fill-opacity:0; stroke-width: 2; stroke: #ffffff" x1="-180.018" y1="1545.22" x2="2739.33" y2="1669.82"/>
    <polygon style="fill: #ffffff" points="2776.8,1671.42 2725.77,1694.26 2739.33,1669.82 2727.91,1644.31 "/>
    <polygon style="fill: none; fill-opacity:0; stroke-width: 2; stroke: #ffffff" points="2776.8,1671.42 2725.77,1694.26 2739.33,1669.82 2727.91,1644.31 "/>
  </g>
  <text font-size="12.8" style="fill: #ffffff;text-anchor:start;font-family:sans-serif;font-style:normal;font-weight:normal" x="774.444" y="112.266">
    <tspan x="774.444" y="112.266"></tspan>
  </text>
  <text font-size="12.8" style="fill: #ffffff;text-anchor:start;font-family:sans-serif;font-style:normal;font-weight:normal" x="774.444" y="112.266">
    <tspan x="774.444" y="112.266"></tspan>
  </text>
  <text font-size="12.8" style="fill: #ffffff;text-anchor:start;font-family:sans-serif;font-style:normal;font-weight:normal" x="1350" y="1050">
    <tspan x="1350" y="1050"></tspan>
  </text>
  <text font-size="12.8" style="fill: #ffffff;text-anchor:start;font-family:sans-serif;font-style:normal;font-weight:normal" x="433.708" y="295.424">
    <tspan x="433.708" y="295.424"></tspan>
  </text>
  <g>
    <line style="fill: none; fill-opacity:0; stroke-width: 2; stroke: #ffffff" x1="1350" y1="1960.72" x2="1350" y2="2039.28"/>
    <polygon style="fill: #ffffff" points="1350,1923.22 1375,1973.22 1350,1960.72 1325,1973.22 "/>
    <polygon style="fill: none; fill-opacity:0; stroke-width: 2; stroke: #ffffff" points="1350,1923.22 1375,1973.22 1350,1960.72 1325,1973.22 "/>
    <polygon style="fill: #ffffff" points="1350,2076.78 1325,2026.78 1350,2039.28 1375,2026.78 "/>
    <polygon style="fill: none; fill-opacity:0; stroke-width: 2; stroke: #ffffff" points="1350,2076.78 1325,2026.78 1350,2039.28 1375,2026.78 "/>
  </g>
  <g>
    <line style="fill: none; fill-opacity:0; stroke-width: 2; stroke: #ffffff" x1="-24.912" y1="1077.68" x2="-160.035" y2="1227.79"/>
    <polygon style="fill: #ffffff" points="-14.8766,1066.53 -20.8248,1088.08 -24.912,1077.68 -35.6895,1074.7 "/>
    <polygon style="fill: none; fill-opacity:0; stroke-width: 2; stroke: #ffffff" points="-14.8766,1066.53 -20.8248,1088.08 -24.912,1077.68 -35.6895,1074.7 "/>
    <polygon style="fill: #ffffff" points="-185.123,1255.66 -170.253,1201.77 -160.035,1227.79 -133.091,1235.22 "/>
    <polygon style="fill: none; fill-opacity:0; stroke-width: 2; stroke: #ffffff" points="-185.123,1255.66 -170.253,1201.77 -160.035,1227.79 -133.091,1235.22 "/>
  </g>
  <text font-size="12.8" style="fill: #ffffff;text-anchor:start;font-family:sans-serif;font-style:normal;font-weight:normal" x="1850" y="464.074">
    <tspan x="1850" y="464.074"></tspan>
  </text>
  <text font-size="12.8" style="fill: #ffffff;text-anchor:start;font-family:sans-serif;font-style:normal;font-weight:normal" x="1850" y="464.074">
    <tspan x="1850" y="464.074"></tspan>
  </text>
  <g>
    <line style="fill: none; fill-opacity:0; stroke-width: 2; stroke: #ffffff" x1="768.604" y1="182.378" x2="733.254" y2="129.625"/>
    <polygon style="fill: #ffffff" points="712.378,98.4722 760.98,126.092 733.254,129.625 719.444,153.926 "/>
    <polygon style="fill: none; fill-opacity:0; stroke-width: 2; stroke: #ffffff" points="712.378,98.4722 760.98,126.092 733.254,129.625 719.444,153.926 "/>
  </g>
  <g>
    <line style="fill: none; fill-opacity:0; stroke-width: 2; stroke: #ffffff" x1="700" y1="-420" x2="700" y2="-540.264"/>
    <polygon style="fill: #ffffff" points="700,-577.764 725,-527.764 700,-540.264 675,-527.764 "/>
    <polygon style="fill: none; fill-opacity:0; stroke-width: 2; stroke: #ffffff" points="700,-577.764 725,-527.764 700,-540.264 675,-527.764 "/>
  </g>
  <text font-size="12.8" style="fill: #ffffff;text-anchor:start;font-family:sans-serif;font-style:normal;font-weight:normal" x="774.444" y="112.266">
    <tspan x="774.444" y="112.266"></tspan>
  </text>
  <g>
    <line style="fill: none; fill-opacity:0; stroke-width: 2; stroke: #ffffff" x1="-26.5502" y1="1023.89" x2="-320.679" y2="734.666"/>
    <polygon style="fill: #ffffff" points="-15.8548,1034.41 -37.1267,1027.52 -26.5502,1023.89 -23.1039,1013.26 "/>
    <polygon style="fill: none; fill-opacity:0; stroke-width: 2; stroke: #ffffff" points="-15.8548,1034.41 -37.1267,1027.52 -26.5502,1023.89 -23.1039,1013.26 "/>
    <polygon style="fill: #ffffff" points="-347.417,708.373 -294.238,725.604 -320.679,734.666 -329.295,761.256 "/>
    <polygon style="fill: none; fill-opacity:0; stroke-width: 2; stroke: #ffffff" points="-347.417,708.373 -294.238,725.604 -320.679,734.666 -329.295,761.256 "/>
  </g>
  <g>
    <line style="fill: none; fill-opacity:0; stroke-width: 2; stroke: #ffffff" x1="-17.8885" y1="191.056" x2="-346.57" y2="26.7148"/>
    <polygon style="fill: #ffffff" points="-380.111,9.94427 -324.21,9.94427 -346.57,26.7148 -346.57,54.6656 "/>
    <polygon style="fill: none; fill-opacity:0; stroke-width: 2; stroke: #ffffff" points="-380.111,9.94427 -324.21,9.94427 -346.57,26.7148 -346.57,54.6656 "/>
  </g>
  <g>
    <line style="fill: none; fill-opacity:0; stroke-width: 2; stroke: #ffffff" x1="2718.34" y1="993.149" x2="2781.66" y2="796.851"/>
    <polygon style="fill: #ffffff" points="2706.83,1028.84 2698.38,973.577 2718.34,993.149 2745.97,988.927 "/>
    <polygon style="fill: none; fill-opacity:0; stroke-width: 2; stroke: #ffffff" points="2706.83,1028.84 2698.38,973.577 2718.34,993.149 2745.97,988.927 "/>
    <polygon style="fill: #ffffff" points="2793.17,761.162 2801.62,816.423 2781.66,796.851 2754.03,801.073 "/>
    <polygon style="fill: none; fill-opacity:0; stroke-width: 2; stroke: #ffffff" points="2793.17,761.162 2801.62,816.423 2781.66,796.851 2754.03,801.073 "/>
  </g>
  <g>
    <rect style="fill: #8cb1df" x="0" y="-400" width="1400" height="480"/>
    <rect style="fill: none; fill-opacity:0; stroke-width: 2; stroke: #000000" x="0" y="-400" width="1400" height="480"/>
    <text font-size="12.8" style="fill: #ffffff;text-anchor:middle;font-family:sans-serif;font-style:normal;font-weight:normal" x="700" y="-155.2">
      <tspan x="700" y="-155.2"></tspan>
    </text>
  </g>
  <g>
    <rect style="fill: #8cb1df" x="2800" y="200" width="1300" height="1080"/>
    <rect style="fill: none; fill-opacity:0; stroke-width: 2; stroke: #000000" x="2800" y="200" width="1300" height="1080"/>
    <text font-size="12.8" style="fill: #ffffff;text-anchor:middle;font-family:sans-serif;font-style:normal;font-weight:normal" x="3450" y="744.8">
      <tspan x="3450" y="744.8"></tspan>
    </text>
  </g>
  <g>
    <rect style="fill: #8cb1df" x="0" y="2100" width="2700" height="1100"/>
    <rect style="fill: none; fill-opacity:0; stroke-width: 2; stroke: #000000" x="0" y="2100" width="2700" height="1100"/>
    <text font-size="12.8" style="fill: #ffffff;text-anchor:middle;font-family:sans-serif;font-style:normal;font-weight:normal" x="1350" y="2654.8">
      <tspan x="1350" y="2654.8"></tspan>
    </text>
  </g>
  <g>
    <rect style="fill: #8cb1df" x="0" y="200" width="2700" height="1700"/>
    <rect style="fill: none; fill-opacity:0; stroke-width: 2; stroke: #000000" x="0" y="200" width="2700" height="1700"/>
    <text font-size="12.8" style="fill: #ffffff;text-anchor:middle;font-family:sans-serif;font-style:normal;font-weight:normal" x="1350" y="1054.8">
      <tspan x="1350" y="1054.8"></tspan>
    </text>
  </g>
  <g>
    <rect style="fill: #8cb1df" x="0" y="-1100" width="1400" height="500"/>
    <rect style="fill: none; fill-opacity:0; stroke-width: 2; stroke: #000000" x="0" y="-1100" width="1400" height="500"/>
    <text font-size="12.8" style="fill: #ffffff;text-anchor:middle;font-family:sans-serif;font-style:normal;font-weight:normal" x="700" y="-845.2">
      <tspan x="700" y="-845.2"></tspan>
    </text>
  </g>
  <g>
    <path style="fill: #8cb1df" d="M -1000 1108.87 C -840,1027.22 -760,1000 -600,1000 C -440,1000 -360,1027.22 -200,1108.87 L -200,1544.37 C -360,1626.02 -440,1653.24 -600,1653.24 C -760,1653.24 -840,1626.02 -1000,1544.37 L -1000,1108.87z"/>
    <path style="fill: none; fill-opacity:0; stroke-width: 2; stroke: #000000" d="M -1000 1108.87 C -840,1027.22 -760,1000 -600,1000 C -440,1000 -360,1027.22 -200,1108.87 L -200,1544.37 C -360,1626.02 -440,1653.24 -600,1653.24 C -760,1653.24 -840,1626.02 -1000,1544.37 L -1000,1108.87"/>
    <path style="fill: none; fill-opacity:0; stroke-width: 2; stroke: #000000" d="M -1000 1108.87 C -840,1190.53 -760,1217.75 -600,1217.75 C -440,1217.75 -360,1190.53 -200,1108.87"/>
    <text font-size="12.8" style="fill: #ffffff;text-anchor:middle;font-family:sans-serif;font-style:normal;font-weight:normal" x="-600" y="1385.86">
      <tspan x="-600" y="1385.86"></tspan>
    </text>
  </g>
  <g>
    <path style="fill: #8cb1df" d="M -1000 286.667 C -840,221.667 -760,200 -600,200 C -440,200 -360,221.667 -200,286.667 L -200,633.333 C -360,698.333 -440,720 -600,720 C -760,720 -840,698.333 -1000,633.333 L -1000,286.667z"/>
    <path style="fill: none; fill-opacity:0; stroke-width: 2; stroke: #000000" d="M -1000 286.667 C -840,221.667 -760,200 -600,200 C -440,200 -360,221.667 -200,286.667 L -200,633.333 C -360,698.333 -440,720 -600,720 C -760,720 -840,698.333 -1000,633.333 L -1000,286.667"/>
    <path style="fill: none; fill-opacity:0; stroke-width: 2; stroke: #000000" d="M -1000 286.667 C -840,351.667 -760,373.333 -600,373.333 C -440,373.333 -360,351.667 -200,286.667"/>
    <text font-size="12.8" style="fill: #ffffff;text-anchor:middle;font-family:sans-serif;font-style:normal;font-weight:normal" x="-600" y="508.133">
      <tspan x="-600" y="508.133"></tspan>
    </text>
  </g>
  <g>
    <rect style="fill: #8cb1df" x="-1000" y="-400" width="600" height="400"/>
    <rect style="fill: none; fill-opacity:0; stroke-width: 2; stroke: #000000" x="-1000" y="-400" width="600" height="400"/>
    <text font-size="12.8" style="fill: #ffffff;text-anchor:middle;font-family:sans-serif;font-style:normal;font-weight:normal" x="-700" y="-195.2">
      <tspan x="-700" y="-195.2"></tspan>
    </text>
  </g>
  <text font-size="12.8" style="fill: #ffffff;text-anchor:start;font-family:sans-serif;font-style:normal;font-weight:normal" x="2274.44" y="112.266">
    <tspan x="2274.44" y="112.266"></tspan>
  </text>
  <text font-size="12.8" style="fill: #ffffff;text-anchor:start;font-family:sans-serif;font-style:normal;font-weight:normal" x="2274.44" y="112.266">
    <tspan x="2274.44" y="112.266"></tspan>
  </text>
  <text font-size="12.8" style="fill: #ffffff;text-anchor:start;font-family:sans-serif;font-style:normal;font-weight:normal" x="2274.44" y="112.266">
    <tspan x="2274.44" y="112.266"></tspan>
  </text>
  <g>
    <rect style="fill: #8cb1df" x="1500" y="-400" width="1200" height="480"/>
    <rect style="fill: none; fill-opacity:0; stroke-width: 2; stroke: #000000" x="1500" y="-400" width="1200" height="480"/>
    <text font-size="12.8" style="fill: #ffffff;text-anchor:middle;font-family:sans-serif;font-style:normal;font-weight:normal" x="2100" y="-155.2">
      <tspan x="2100" y="-155.2"></tspan>
    </text>
  </g>
  <g>
    <line style="fill: none; fill-opacity:0; stroke-width: 2; stroke: #ffffff" x1="2056.66" y1="149.344" x2="2068.34" y2="130.656"/>
    <polygon style="fill: #ffffff" points="2036.79,181.144 2042.09,125.494 2056.66,149.344 2084.48,151.994 "/>
    <polygon style="fill: none; fill-opacity:0; stroke-width: 2; stroke: #ffffff" points="2036.79,181.144 2042.09,125.494 2056.66,149.344 2084.48,151.994 "/>
    <polygon style="fill: #ffffff" points="2088.21,98.8561 2082.91,154.506 2068.34,130.656 2040.52,128.006 "/>
    <polygon style="fill: none; fill-opacity:0; stroke-width: 2; stroke: #ffffff" points="2088.21,98.8561 2082.91,154.506 2068.34,130.656 2040.52,128.006 "/>
  </g>
  <g>
    <rect style="fill: #8cb1df" x="2800" y="1500" width="1293.05" height="400"/>
    <rect style="fill: none; fill-opacity:0; stroke-width: 2; stroke: #000000" x="2800" y="1500" width="1293.05" height="400"/>
    <text font-size="12.8" style="fill: #ffffff;text-anchor:middle;font-family:sans-serif;font-style:normal;font-weight:normal" x="3446.53" y="1704.8">
      <tspan x="3446.53" y="1704.8"></tspan>
    </text>
  </g>
  <g>
    <line style="fill: none; fill-opacity:0; stroke-width: 2; stroke: #ffffff" x1="3447.25" y1="1499.01" x2="3447.9" y2="1320.74"/>
    <polygon style="fill: #ffffff" points="3448.03,1283.24 3472.85,1333.33 3447.9,1320.74 3422.85,1333.15 "/>
    <polygon style="fill: none; fill-opacity:0; stroke-width: 2; stroke: #ffffff" points="3448.03,1283.24 3472.85,1333.33 3447.9,1320.74 3422.85,1333.15 "/>
  </g>
  <text font-size="12.8" style="fill: #000000;text-anchor:start;font-family:sans-serif;font-style:normal;font-weight:normal" x="2900" y="1400">
    <tspan x="2900" y="1400"></tspan>
  </text>
  <text font-size="49.6711" style="fill: #ffffff;text-anchor:start;font-family:sans-serif;font-style:normal;font-weight:700" x="0" y="-410.25">
    <tspan x="0" y="-410.25">Message Broker</tspan>
  </text>
  <text font-size="49.6711" style="fill: #ffffff;text-anchor:start;font-family:sans-serif;font-style:normal;font-weight:700" x="2800" y="189.75">
    <tspan x="2800" y="189.75">Front End</tspan>
  </text>
  <text font-size="49.6711" style="fill: #ffffff;text-anchor:start;font-family:sans-serif;font-style:normal;font-weight:700" x="0" y="2089.75">
    <tspan x="0" y="2089.75">API</tspan>
  </text>
  <text font-size="49.6711" style="fill: #ffffff;text-anchor:start;font-family:sans-serif;font-style:normal;font-weight:700" x="0" y="189.75">
    <tspan x="0" y="189.75">Back End</tspan>
  </text>
  <text font-size="49.6711" style="fill: #ffffff;text-anchor:start;font-family:sans-serif;font-style:normal;font-weight:700" x="0" y="-1110.25">
    <tspan x="0" y="-1110.25">Distributed Task Queue</tspan>
  </text>
  <text font-size="49.6711" style="fill: #ffffff;text-anchor:start;font-family:sans-serif;font-style:normal;font-weight:700" x="-728.248" y="902.286">
    <tspan x="-728.248" y="902.286">Relational</tspan>
    <tspan x="-728.248" y="964.375">Database</tspan>
  </text>
  <text font-size="49.6711" style="fill: #ffffff;text-anchor:start;font-family:sans-serif;font-style:normal;font-weight:700" x="-732.326" y="174.622">
    <tspan x="-732.326" y="174.622">File Storage</tspan>
  </text>
  <text font-size="49.6711" style="fill: #ffffff;text-anchor:start;font-family:sans-serif;font-style:normal;font-weight:700" x="-1000" y="-410.25">
    <tspan x="-1000" y="-410.25">Application Monitoring</tspan>
  </text>
  <text font-size="49.6711" style="fill: #ffffff;text-anchor:start;font-family:sans-serif;font-style:normal;font-weight:700" x="1500" y="-410.25">
    <tspan x="1500" y="-410.25">Web Scraping</tspan>
  </text>
  <text font-size="49.6711" style="fill: #ffffff;text-anchor:start;font-family:sans-serif;font-style:normal;font-weight:700" x="2800" y="1489.75">
    <tspan x="2800" y="1489.75">BI Dashboards</tspan>
  </text>
  <g>
    <rect style="fill: #8cb1df" x="-636.638" y="-1000.48" width="416.725" height="245.455"/>
    <rect style="fill: none; fill-opacity:0; stroke-width: 2; stroke: #000000" x="-636.638" y="-1000.48" width="416.725" height="245.455"/>
    <text font-size="12.8" style="fill: #ffffff;text-anchor:middle;font-family:sans-serif;font-style:normal;font-weight:normal" x="-428.275" y="-872.949">
      <tspan x="-428.275" y="-872.949"></tspan>
    </text>
  </g>
  <text font-size="49.6711" style="fill: #ffffff;text-anchor:start;font-family:sans-serif;font-style:normal;font-weight:700" x="-636.638" y="-1010.73">
    <tspan x="-636.638" y="-1010.73">Email Server</tspan>
  </text>
  <g>
    <line style="fill: none; fill-opacity:0; stroke-width: 2; stroke: #ffffff" x1="-7.38581" y1="181.414" x2="-357.059" y2="-698.535"/>
    <polygon style="fill: #ffffff" points="-370.908,-733.384 -329.21,-696.151 -357.059,-698.535 -375.676,-677.686 "/>
    <polygon style="fill: none; fill-opacity:0; stroke-width: 2; stroke: #ffffff" points="-370.908,-733.384 -329.21,-696.151 -357.059,-698.535 -375.676,-677.686 "/>
  </g>
  <g>
    <line style="fill: none; fill-opacity:0; stroke-width: 2; stroke: #ffffff" x1="-20.9826" y1="-867.732" x2="-159.192" y2="-871.131"/>
    <polygon style="fill: #ffffff" points="-196.681,-872.053 -146.081,-895.816 -159.192,-871.131 -147.311,-845.831 "/>
    <polygon style="fill: none; fill-opacity:0; stroke-width: 2; stroke: #ffffff" points="-196.681,-872.053 -146.081,-895.816 -159.192,-871.131 -147.311,-845.831 "/>
  </g>
  <g>
    <line style="fill: none; fill-opacity:0; stroke-width: 2; stroke: #ffffff" x1="-28.2407" y1="2322.36" x2="-371.759" y2="1682.06"/>
    <polygon style="fill: #ffffff" points="-10.5123,2355.41 -56.18,2323.17 -28.2407,2322.36 -12.1204,2299.53 "/>
    <polygon style="fill: none; fill-opacity:0; stroke-width: 2; stroke: #ffffff" points="-10.5123,2355.41 -56.18,2323.17 -28.2407,2322.36 -12.1204,2299.53 "/>
    <polygon style="fill: #ffffff" points="-389.488,1649.02 -343.82,1681.26 -371.759,1682.06 -387.88,1704.9 "/>
    <polygon style="fill: none; fill-opacity:0; stroke-width: 2; stroke: #ffffff" points="-389.488,1649.02 -343.82,1681.26 -371.759,1682.06 -387.88,1704.9 "/>
  </g>
  <g>
    <rect style="fill: #8cb1df" x="-1122.92" y="-868.314" width="416.725" height="245.455"/>
    <rect style="fill: none; fill-opacity:0; stroke-width: 2; stroke: #000000" x="-1122.92" y="-868.314" width="416.725" height="245.455"/>
    <text font-size="12.8" style="fill: #ffffff;text-anchor:middle;font-family:sans-serif;font-style:normal;font-weight:normal" x="-914.559" y="-740.787">
      <tspan x="-914.559" y="-740.787"></tspan>
    </text>
  </g>
  <text font-size="49.6711" style="fill: #ffffff;text-anchor:start;font-family:sans-serif;font-style:normal;font-weight:700" x="-1122.92" y="-878.564">
    <tspan x="-1122.92" y="-878.564">Directory Service</tspan>
  </text>
  <g>
    <rect style="fill: #c5d8ef" x="160" y="280" width="2440" height="1520"/>
    <rect style="fill: none; fill-opacity:0; stroke-width: 2; stroke: #000000" x="160" y="280" width="2440" height="1520"/>
    <text font-size="12.8" style="fill: #000000;text-anchor:middle;font-family:sans-serif;font-style:normal;font-weight:normal" x="1380" y="1044.8">
      <tspan x="1380" y="1044.8"></tspan>
    </text>
  </g>
  <text font-size="36.1244" style="fill: #000000;text-anchor:start;font-family:sans-serif;font-style:normal;font-weight:normal" x="240" y="352.55">
    <tspan x="240" y="352.55">NGINX</tspan>
  </text>
  <g>
    <rect style="fill: #c5d8ef" x="240" y="360" width="2260" height="1340"/>
    <rect style="fill: none; fill-opacity:0; stroke-width: 2; stroke: #000000" x="240" y="360" width="2260" height="1340"/>
    <text font-size="12.8" style="fill: #000000;text-anchor:middle;font-family:sans-serif;font-style:normal;font-weight:normal" x="1370" y="1034.8">
      <tspan x="1370" y="1034.8"></tspan>
    </text>
  </g>
  <g>
    <rect style="fill: #c5d8ef" x="320" y="440" width="2080" height="1160"/>
    <rect style="fill: none; fill-opacity:0; stroke-width: 2; stroke: #000000" x="320" y="440" width="2080" height="1160"/>
    <text font-size="12.8" style="fill: #000000;text-anchor:middle;font-family:sans-serif;font-style:normal;font-weight:normal" x="1360" y="1024.8">
      <tspan x="1360" y="1024.8"></tspan>
    </text>
  </g>
  <text font-size="36.1244" style="fill: #000000;text-anchor:start;font-family:sans-serif;font-style:normal;font-weight:normal" x="320" y="432.55">
    <tspan x="320" y="432.55">Gunicorn</tspan>
  </text>
  <text font-size="36.1244" style="fill: #000000;text-anchor:start;font-family:sans-serif;font-style:normal;font-weight:normal" x="160" y="272.55">
    <tspan x="160" y="272.55">Docker</tspan>
  </text>
  <g>
    <rect style="fill: #e2ecf7" x="100" y="2200" width="2500" height="900"/>
    <rect style="fill: none; fill-opacity:0; stroke-width: 2; stroke: #000000" x="100" y="2200" width="2500" height="900"/>
    <text font-size="12.8" style="fill: #000000;text-anchor:middle;font-family:sans-serif;font-style:normal;font-weight:normal" x="1350" y="2654.8">
      <tspan x="1350" y="2654.8"></tspan>
    </text>
  </g>
  <text font-size="36.1244" style="fill: #000000;text-anchor:start;font-family:sans-serif;font-style:normal;font-weight:normal" x="100" y="2192.55">
    <tspan x="100" y="2192.55">Python</tspan>
  </text>
  <g>
    <rect style="fill: #c5d8ef" x="2900" y="300" width="1100" height="920"/>
    <rect style="fill: none; fill-opacity:0; stroke-width: 2; stroke: #000000" x="2900" y="300" width="1100" height="920"/>
    <text font-size="12.8" style="fill: #000000;text-anchor:middle;font-family:sans-serif;font-style:normal;font-weight:normal" x="3450" y="764.8">
      <tspan x="3450" y="764.8"></tspan>
    </text>
  </g>
  <g>
    <rect style="fill: #c5d8ef" x="2980" y="380" width="920" height="760"/>
    <rect style="fill: none; fill-opacity:0; stroke-width: 2; stroke: #000000" x="2980" y="380" width="920" height="760"/>
    <text font-size="12.8" style="fill: #000000;text-anchor:middle;font-family:sans-serif;font-style:normal;font-weight:normal" x="3440" y="764.8">
      <tspan x="3440" y="764.8"></tspan>
    </text>
  </g>
  <g>
    <rect style="fill: #e2ecf7" x="3060" y="460" width="740" height="600"/>
    <rect style="fill: none; fill-opacity:0; stroke-width: 2; stroke: #000000" x="3060" y="460" width="740" height="600"/>
    <text font-size="12.8" style="fill: #000000;text-anchor:middle;font-family:sans-serif;font-style:normal;font-weight:normal" x="3430" y="764.8">
      <tspan x="3430" y="764.8"></tspan>
    </text>
  </g>
  <text font-size="36.1244" style="fill: #000000;text-anchor:start;font-family:sans-serif;font-style:normal;font-weight:normal" x="2900" y="292.55">
    <tspan x="2900" y="292.55">Docker</tspan>
  </text>
  <text font-size="36.1244" style="fill: #000000;text-anchor:start;font-family:sans-serif;font-style:normal;font-weight:normal" x="2980" y="372.55">
    <tspan x="2980" y="372.55">NGINX</tspan>
  </text>
  <text font-size="36.1244" style="fill: #000000;text-anchor:start;font-family:sans-serif;font-style:normal;font-weight:normal" x="3060" y="452.55">
    <tspan x="3060" y="452.55">Angular</tspan>
  </text>
  <g>
    <rect style="fill: #e2ecf7" x="400" y="511" width="1900" height="989"/>
    <rect style="fill: none; fill-opacity:0; stroke-width: 2; stroke: #000000" x="400" y="511" width="1900" height="989"/>
    <text font-size="12.8" style="fill: #000000;text-anchor:middle;font-family:sans-serif;font-style:normal;font-weight:normal" x="1350" y="1010.3">
      <tspan x="1350" y="1010.3"></tspan>
    </text>
  </g>
  <text font-size="36.1244" style="fill: #000000;text-anchor:start;font-family:sans-serif;font-style:normal;font-weight:normal" x="400" y="503.55">
    <tspan x="400" y="503.55">Django</tspan>
  </text>
  <g>
    <rect style="fill: #c5d8ef" x="200" y="-260" width="960" height="240"/>
    <rect style="fill: none; fill-opacity:0; stroke-width: 2; stroke: #000000" x="200" y="-260" width="960" height="240"/>
    <text font-size="12.8" style="fill: #000000;text-anchor:middle;font-family:sans-serif;font-style:normal;font-weight:normal" x="680" y="-135.2">
      <tspan x="680" y="-135.2"></tspan>
    </text>
  </g>
  <text font-size="36.1244" style="fill: #000000;text-anchor:start;font-family:sans-serif;font-style:normal;font-weight:normal" x="209.97" y="-278.254">
    <tspan x="209.97" y="-278.254">Docker</tspan>
  </text>
  <g>
    <rect style="fill: #e2ecf7" x="300" y="-200" width="800" height="100"/>
    <rect style="fill: none; fill-opacity:0; stroke-width: 2; stroke: #000000" x="300" y="-200" width="800" height="100"/>
    <text font-size="12.8" style="fill: #000000;text-anchor:middle;font-family:sans-serif;font-style:normal;font-weight:normal" x="700" y="-145.2">
      <tspan x="700" y="-145.2"></tspan>
    </text>
  </g>
  <text font-size="36.1244" style="fill: #000000;text-anchor:start;font-family:sans-serif;font-style:normal;font-weight:normal" x="300" y="-207.45">
    <tspan x="300" y="-207.45">Rabbit MQ</tspan>
  </text>
  <g>
    <rect style="fill: #c5d8ef" x="-899.898" y="-306.762" width="400" height="200"/>
    <rect style="fill: none; fill-opacity:0; stroke-width: 2; stroke: #000000" x="-899.898" y="-306.762" width="400" height="200"/>
    <text font-size="12.8" style="fill: #000000;text-anchor:middle;font-family:sans-serif;font-style:normal;font-weight:normal" x="-699.898" y="-201.962">
      <tspan x="-699.898" y="-201.962"></tspan>
    </text>
  </g>
  <g>
    <rect style="fill: #c5d8ef" x="-819.898" y="-226.762" width="220" height="38"/>
    <rect style="fill: none; fill-opacity:0; stroke-width: 2; stroke: #000000" x="-819.898" y="-226.762" width="220" height="38"/>
    <text font-size="12.8" style="fill: #000000;text-anchor:middle;font-family:sans-serif;font-style:normal;font-weight:normal" x="-709.898" y="-202.962">
      <tspan x="-709.898" y="-202.962"></tspan>
    </text>
  </g>
  <text font-size="36.1244" style="fill: #000000;text-anchor:start;font-family:sans-serif;font-style:normal;font-weight:normal" x="-819.898" y="-234.212">
    <tspan x="-819.898" y="-234.212">Sentry</tspan>
  </text>
  <text font-size="36.1244" style="fill: #000000;text-anchor:start;font-family:sans-serif;font-style:normal;font-weight:normal" x="-899.898" y="-314.212">
    <tspan x="-899.898" y="-314.212">Docker</tspan>
  </text>
  <g>
    <rect style="fill: #c5d8ef" x="200" y="-1000" width="960" height="300"/>
    <rect style="fill: none; fill-opacity:0; stroke-width: 2; stroke: #000000" x="200" y="-1000" width="960" height="300"/>
    <text font-size="12.8" style="fill: #000000;text-anchor:middle;font-family:sans-serif;font-style:normal;font-weight:normal" x="680" y="-845.2">
      <tspan x="680" y="-845.2"></tspan>
    </text>
  </g>
  <g>
    <rect style="fill: #e2ecf7" x="300" y="-900" width="800" height="80"/>
    <rect style="fill: none; fill-opacity:0; stroke-width: 2; stroke: #000000" x="300" y="-900" width="800" height="80"/>
    <text font-size="12.8" style="fill: #000000;text-anchor:middle;font-family:sans-serif;font-style:normal;font-weight:normal" x="700" y="-855.2">
      <tspan x="700" y="-855.2"></tspan>
    </text>
  </g>
  <text font-size="36.1244" style="fill: #000000;text-anchor:start;font-family:sans-serif;font-style:normal;font-weight:normal" x="300" y="-907.45">
    <tspan x="300" y="-907.45">Celery</tspan>
  </text>
  <text font-size="36.1244" style="fill: #000000;text-anchor:start;font-family:sans-serif;font-style:normal;font-weight:normal" x="200" y="-1000">
    <tspan x="200" y="-1000">Docker</tspan>
  </text>
  <g>
    <rect style="fill: #c5d8ef" x="-781.678" y="1334.33" width="400" height="100"/>
    <rect style="fill: none; fill-opacity:0; stroke-width: 2; stroke: #000000" x="-781.678" y="1334.33" width="400" height="100"/>
    <text font-size="36.1244" style="fill: #000000;text-anchor:middle;font-family:sans-serif;font-style:normal;font-weight:normal" x="-581.678" y="1397.85">
      <tspan x="-581.678" y="1397.85">Postgres or MS MSSQL</tspan>
    </text>
  </g>
  <g>
    <rect style="fill: #c5d8ef" x="1600" y="-300" width="960" height="240"/>
    <rect style="fill: none; fill-opacity:0; stroke-width: 2; stroke: #000000" x="1600" y="-300" width="960" height="240"/>
    <text font-size="12.8" style="fill: #000000;text-anchor:middle;font-family:sans-serif;font-style:normal;font-weight:normal" x="2080" y="-175.2">
      <tspan x="2080" y="-175.2"></tspan>
    </text>
  </g>
  <text font-size="36.1244" style="fill: #000000;text-anchor:start;font-family:sans-serif;font-style:normal;font-weight:normal" x="1609.97" y="-318.254">
    <tspan x="1609.97" y="-318.254">Docker</tspan>
  </text>
  <g>
    <rect style="fill: #e2ecf7" x="1700" y="-240" width="800" height="100"/>
    <rect style="fill: none; fill-opacity:0; stroke-width: 2; stroke: #000000" x="1700" y="-240" width="800" height="100"/>
    <text font-size="12.8" style="fill: #000000;text-anchor:middle;font-family:sans-serif;font-style:normal;font-weight:normal" x="2100" y="-185.2">
      <tspan x="2100" y="-185.2"></tspan>
    </text>
  </g>
  <text font-size="36.1244" style="fill: #000000;text-anchor:start;font-family:sans-serif;font-style:normal;font-weight:normal" x="1700" y="-247.45">
    <tspan x="1700" y="-247.45">Scrapy</tspan>
  </text>
  <g>
    <rect style="fill: #c5d8ef" x="2900" y="1600" width="1100" height="200"/>
    <rect style="fill: none; fill-opacity:0; stroke-width: 2; stroke: #000000" x="2900" y="1600" width="1100" height="200"/>
    <text font-size="12.8" style="fill: #000000;text-anchor:middle;font-family:sans-serif;font-style:normal;font-weight:normal" x="3450" y="1704.8">
      <tspan x="3450" y="1704.8"></tspan>
    </text>
  </g>
  <text font-size="36.1244" style="fill: #000000;text-anchor:start;font-family:sans-serif;font-style:normal;font-weight:normal" x="2900" y="1592.55">
    <tspan x="2900" y="1592.55">Tableau</tspan>
  </text>
  <text font-size="12.8" style="fill: #000000;text-anchor:start;font-family:sans-serif;font-style:normal;font-weight:normal" x="3450" y="1700">
    <tspan x="3450" y="1700"></tspan>
  </text>
  <text font-size="12.8" style="fill: #000000;text-anchor:start;font-family:sans-serif;font-style:normal;font-weight:normal" x="3450" y="1700">
    <tspan x="3450" y="1700"></tspan>
  </text>
  <g>
    <rect style="fill: #ffffff" x="500" y="1200" width="600" height="200"/>
    <rect style="fill: none; fill-opacity:0; stroke-width: 2; stroke: #000000" x="500" y="1200" width="600" height="200"/>
    <text font-size="36.1244" style="fill: #000000;text-anchor:middle;font-family:sans-serif;font-style:normal;font-weight:normal" x="800" y="1290.94">
      <tspan x="800" y="1290.94">Pytest-Django</tspan>
      <tspan x="800" y="1336.1">(Testing)</tspan>
    </text>
  </g>
  <g>
    <rect style="fill: #ffffff" x="1700" y="600" width="552.05" height="500"/>
    <rect style="fill: none; fill-opacity:0; stroke-width: 2; stroke: #000000" x="1700" y="600" width="552.05" height="500"/>
    <text font-size="36.1244" style="fill: #000000;text-anchor:middle;font-family:sans-serif;font-style:normal;font-weight:normal" x="1976.03" y="840.944">
      <tspan x="1976.03" y="840.944">Django Views</tspan>
      <tspan x="1976.03" y="886.1">(Web + Web Admin + REST API)</tspan>
    </text>
  </g>
  <g>
    <rect style="fill: #ffffff" x="1200" y="1200" width="400" height="200"/>
    <rect style="fill: none; fill-opacity:0; stroke-width: 2; stroke: #000000" x="1200" y="1200" width="400" height="200"/>
    <text font-size="36.1244" style="fill: #000000;text-anchor:middle;font-family:sans-serif;font-style:normal;font-weight:normal" x="1400" y="1290.94">
      <tspan x="1400" y="1290.94">Django Logging</tspan>
      <tspan x="1400" y="1336.1">(Monitoring)</tspan>
    </text>
  </g>
  <g>
    <rect style="fill: #ffffff" x="1200" y="600" width="400" height="200"/>
    <rect style="fill: none; fill-opacity:0; stroke-width: 2; stroke: #000000" x="1200" y="600" width="400" height="200"/>
    <text font-size="36.1244" style="fill: #000000;text-anchor:middle;font-family:sans-serif;font-style:normal;font-weight:normal" x="1400" y="690.944">
      <tspan x="1400" y="690.944">Django Forms</tspan>
      <tspan x="1400" y="736.1">(Web Logic)</tspan>
    </text>
  </g>
  <g>
    <rect style="fill: #ffffff" x="1200" y="900" width="400" height="200"/>
    <rect style="fill: none; fill-opacity:0; stroke-width: 2; stroke: #000000" x="1200" y="900" width="400" height="200"/>
    <text font-size="36.1244" style="fill: #000000;text-anchor:middle;font-family:sans-serif;font-style:normal;font-weight:normal" x="1400" y="990.944">
      <tspan x="1400" y="990.944">Django Serializers</tspan>
      <tspan x="1400" y="1036.1">(REST API Logic)</tspan>
    </text>
  </g>
  <g>
    <rect style="fill: #ffffff" x="500" y="600" width="618.15" height="500"/>
    <rect style="fill: none; fill-opacity:0; stroke-width: 2; stroke: #000000" x="500" y="600" width="618.15" height="500"/>
    <text font-size="36.1244" style="fill: #000000;text-anchor:middle;font-family:sans-serif;font-style:normal;font-weight:normal" x="809.075" y="840.944">
      <tspan x="809.075" y="840.944">Django Models</tspan>
      <tspan x="809.075" y="886.1">(Data Model + ORM + Busines Logic)</tspan>
    </text>
  </g>
  <g>
    <rect style="fill: #ffffff" x="200" y="2300" width="180" height="112.311"/>
    <rect style="fill: none; fill-opacity:0; stroke-width: 2; stroke: #000000" x="200" y="2300" width="180" height="112.311"/>
    <text font-size="36.1244" style="fill: #000000;text-anchor:middle;font-family:sans-serif;font-style:normal;font-weight:normal" x="290" y="2369.68">
      <tspan x="290" y="2369.68">Pytest</tspan>
    </text>
  </g>
</svg>
